<?xml version="1.0" standalone="no"?>
<!DOCTYPE svg PUBLIC "-//W3C//DTD SVG 20010904//EN"
 "http://www.w3.org/TR/2001/REC-SVG-20010904/DTD/svg10.dtd">
<svg version="1.0" xmlns="http://www.w3.org/2000/svg"
 width="900.000000pt" height="900.000000pt" viewBox="0 0 900.000000 900.000000"
 preserveAspectRatio="xMidYMid meet">
<metadata>
Created by potrace 1.10, written by Peter Selinger 2001-2011
</metadata>
<g transform="translate(0.000000,900.000000) scale(0.100000,-0.100000)"
fill="#000000" stroke="none">
<path d="M4138 5784 c-5 -4 -8 -605 -8 -1336 l0 -1328 170 0 c169 0 170 0 171
23 1 12 0 421 -1 910 -2 769 0 887 12 887 8 0 120 -107 249 -238 129 -131 502
-510 830 -842 328 -333 641 -651 695 -708 54 -56 105 -102 112 -102 10 0 12
270 10 1333 l-3 1332 -154 3 c-107 2 -158 -1 -167 -9 -13 -10 -15 -148 -14
-926 1 -503 -1 -917 -4 -920 -6 -6 -34 22 -511 513 -316 326 -533 548 -846
869 -97 99 -257 263 -355 363 -98 101 -182 180 -186 176z"/>
<path d="M4010 5738 c-47 -64 -192 -266 -232 -323 -19 -27 -117 -165 -218
-305 -101 -140 -201 -280 -222 -310 -21 -30 -74 -104 -117 -165 -44 -60 -102
-140 -128 -178 -26 -37 -93 -129 -148 -205 -55 -76 -116 -161 -135 -190 -19
-28 -41 -52 -48 -52 -7 0 -39 37 -72 83 -108 149 -272 380 -338 477 -36 52
-75 107 -86 121 -12 15 -43 60 -71 99 -27 40 -81 117 -120 171 -38 54 -90 128
-115 164 -25 36 -52 74 -60 85 -8 10 -64 89 -125 175 -217 308 -267 375 -281
375 -12 0 -14 -180 -12 -1317 l3 -1318 165 0 165 0 5 795 c3 437 9 794 14 793
7 -1 69 -84 251 -335 33 -46 74 -103 91 -128 28 -41 232 -326 401 -559 37 -52
85 -119 107 -150 36 -53 62 -81 76 -81 8 0 142 184 311 428 35 51 93 133 129
183 36 49 112 157 170 240 58 83 132 188 165 234 33 47 80 114 105 150 25 35
51 65 58 65 9 0 12 -168 12 -807 0 -445 4 -814 8 -821 7 -9 48 -12 173 -10
l164 3 3 1328 c1 854 -1 1327 -8 1327 -5 0 -23 -19 -40 -42z"/>
<path d="M6457 5708 c-16 -12 -17 -82 -15 -1298 l3 -1285 170 0 170 0 5 470
c3 259 7 471 8 471 1 1 118 4 260 7 245 5 374 18 442 45 112 45 142 60 202 99
127 84 221 207 281 368 47 126 52 156 51 330 0 175 -3 191 -56 335 -84 226
-318 398 -613 451 -33 6 -247 13 -475 16 -335 4 -418 2 -433 -9z m868 -343
c44 -9 100 -25 125 -37 101 -49 197 -175 226 -296 66 -277 -105 -560 -364
-603 -31 -5 -159 -9 -283 -9 -198 0 -228 2 -233 16 -8 20 -8 908 0 928 5 14
35 16 228 16 157 0 244 -4 301 -15z"/>
</g>
</svg>
